HIERARCHY
ROOT Hips
{
    OFFSET   0.000000   0.000000   0.000000
    CHANNELS 6 Xposition Yposition Zposition Zrotation Xrotation Yrotation
    JOINT Chest
    {
        OFFSET   0.000000   8.007230   0.000000
        CHANNELS 3 Zrotation Xrotation Yrotation
        JOINT Chest2
        {
            OFFSET   0.000000  22.077100   0.000000
            CHANNELS 3 Zrotation Xrotation Yrotation
            JOINT Neck
            {
                OFFSET   0.000000  23.254800  -0.000021
                CHANNELS 3 Zrotation Xrotation Yrotation
                JOINT Head
                {
                    OFFSET   0.000000  14.370000   1.956610
                    CHANNELS 3 Zrotation Xrotation Yrotation
                    End Site
                    {
                        OFFSET   0.000000  19.566000   0.000000
                    }
                }
            }
            JOINT LeftCollar
            {
                OFFSET   3.911900  19.017000  -0.467063
                CHANNELS 3 Zrotation Xrotation Yrotation
                JOINT LeftShoulder
                {
                    OFFSET  10.383700   0.000000   0.000000
                    CHANNELS 3 Zrotation Xrotation Yrotation
                    JOINT LeftElbow
                    {
                        OFFSET  26.662100   0.001529   0.000325
                        CHANNELS 3 Zrotation Xrotation Yrotation
                        JOINT LeftWrist
                        {
                            OFFSET  28.869000  -0.000011  -0.000096
                            CHANNELS 3 Zrotation Xrotation Yrotation
                            JOINT LeftFinger0
                            {
                                OFFSET   2.044650  -2.323460   3.252850
                                CHANNELS 3 Zrotation Xrotation Yrotation
                                JOINT LeftFinger01
                                {
                                    OFFSET   3.088130   0.000000   0.000000
                                    CHANNELS 3 Zrotation Xrotation Yrotation
                                    JOINT LeftFinger02
                                    {
                                        OFFSET   2.639460   0.000000   0.000000
                                        CHANNELS 3 Zrotation Xrotation Yrotation
                                        End Site
                                        {
                                            OFFSET   2.582190   0.000000   0.000000
                                        }
                                    }
                                }
                            }
                            JOINT LeftFinger1
                            {
                                OFFSET   8.364480   0.000000   3.252850
                                CHANNELS 3 Zrotation Xrotation Yrotation
                                JOINT LeftFinger11
                                {
                                    OFFSET   4.646930   0.000000   0.000000
                                    CHANNELS 3 Zrotation Xrotation Yrotation
                                    JOINT LeftFinger12
                                    {
                                        OFFSET   2.323460   0.000000   0.000000
                                        CHANNELS 3 Zrotation Xrotation Yrotation
                                        End Site
                                        {
                                            OFFSET   2.273050   0.000000   0.000000
                                        }
                                    }
                                }
                            }
                            JOINT LeftFinger2
                            {
                                OFFSET   8.364480   0.000016   1.078090
                                CHANNELS 3 Zrotation Xrotation Yrotation
                                JOINT LeftFinger21
                                {
                                    OFFSET   5.111620   0.000000   0.000000
                                    CHANNELS 3 Zrotation Xrotation Yrotation
                                    JOINT LeftFinger22
                                    {
                                        OFFSET   2.788160   0.000017   0.000000
                                        CHANNELS 3 Zrotation Xrotation Yrotation
                                        End Site
                                        {
                                            OFFSET   2.727660   0.000000   0.000000
                                        }
                                    }
                                }
                            }
                            JOINT LeftFinger3
                            {
                                OFFSET   7.899780   0.000015  -1.078090
                                CHANNELS 3 Zrotation Xrotation Yrotation
                                JOINT LeftFinger31
                                {
                                    OFFSET   4.646920   0.000000   0.000000
                                    CHANNELS 3 Zrotation Xrotation Yrotation
                                    JOINT LeftFinger32
                                    {
                                        OFFSET   2.323470   0.000000   0.000000
                                        CHANNELS 3 Zrotation Xrotation Yrotation
                                        End Site
                                        {
                                            OFFSET   2.273050   0.000000   0.000000
                                        }
                                    }
                                }
                            }
                            JOINT LeftFinger4
                            {
                                OFFSET   7.435090   0.000000  -3.252850
                                CHANNELS 3 Zrotation Xrotation Yrotation
                                JOINT LeftFinger41
                                {
                                    OFFSET   3.717550   0.000000   0.000000
                                    CHANNELS 3 Zrotation Xrotation Yrotation
                                    JOINT LeftFinger42
                                    {
                                        OFFSET   1.858760   0.000000   0.000000
                                        CHANNELS 3 Zrotation Xrotation Yrotation
                                        End Site
                                        {
                                            OFFSET   1.818440   0.000000   0.000000
                                        }
                                    }
                                }
                            }
                        }
                    }
                }
            }
            JOINT RightCollar
            {
                OFFSET  -3.911900  19.017000  -0.467062
                CHANNELS 3 Zrotation Xrotation Yrotation
                JOINT RightShoulder
                {
                    OFFSET -10.383700   0.000015   0.000000
                    CHANNELS 3 Zrotation Xrotation Yrotation
                    JOINT RightElbow
                    {
                        OFFSET -26.662100   0.001341   0.000385
                        CHANNELS 3 Zrotation Xrotation Yrotation
                        JOINT RightWrist
                        {
                            OFFSET -28.869000   0.000025  -0.000080
                            CHANNELS 3 Zrotation Xrotation Yrotation
                            JOINT RightFinger0
                            {
                                OFFSET  -2.044650  -2.323490   3.252850
                                CHANNELS 3 Zrotation Xrotation Yrotation
                                JOINT RightFinger01
                                {
                                    OFFSET  -3.088130   0.000000   0.000000
                                    CHANNELS 3 Zrotation Xrotation Yrotation
                                    JOINT RightFinger02
                                    {
                                        OFFSET  -2.639460   0.000000   0.000000
                                        CHANNELS 3 Zrotation Xrotation Yrotation
                                        End Site
                                        {
                                            OFFSET  -2.582190   0.000000   0.000000
                                        }
                                    }
                                }
                            }
                            JOINT RightFinger1
                            {
                                OFFSET  -8.364480   0.000000   3.252850
                                CHANNELS 3 Zrotation Xrotation Yrotation
                                JOINT RightFinger11
                                {
                                    OFFSET  -4.646930   0.000000   0.000000
                                    CHANNELS 3 Zrotation Xrotation Yrotation
                                    JOINT RightFinger12
                                    {
                                        OFFSET  -2.323470   0.000000   0.000000
                                        CHANNELS 3 Zrotation Xrotation Yrotation
                                        End Site
                                        {
                                            OFFSET  -2.273050   0.000000   0.000000
                                        }
                                    }
                                }
                            }
                            JOINT RightFinger2
                            {
                                OFFSET  -8.364480   0.000000   1.078090
                                CHANNELS 3 Zrotation Xrotation Yrotation
                                JOINT RightFinger21
                                {
                                    OFFSET  -5.111610   0.000000   0.000000
                                    CHANNELS 3 Zrotation Xrotation Yrotation
                                    JOINT RightFinger22
                                    {
                                        OFFSET  -2.788160   0.000000   0.000000
                                        CHANNELS 3 Zrotation Xrotation Yrotation
                                        End Site
                                        {
                                            OFFSET  -2.727660   0.000000   0.000000
                                        }
                                    }
                                }
                            }
                            JOINT RightFinger3
                            {
                                OFFSET  -7.899780   0.000000  -1.078090
                                CHANNELS 3 Zrotation Xrotation Yrotation
                                JOINT RightFinger31
                                {
                                    OFFSET  -4.646920   0.000000   0.000000
                                    CHANNELS 3 Zrotation Xrotation Yrotation
                                    JOINT RightFinger32
                                    {
                                        OFFSET  -2.323470   0.000000   0.000000
                                        CHANNELS 3 Zrotation Xrotation Yrotation
                                        End Site
                                        {
                                            OFFSET  -2.273050   0.000000   0.000000
                                        }
                                    }
                                }
                            }
                            JOINT RightFinger4
                            {
                                OFFSET  -7.435090   0.000000  -3.252850
                                CHANNELS 3 Zrotation Xrotation Yrotation
                                JOINT RightFinger41
                                {
                                    OFFSET  -3.717550   0.000000   0.000000
                                    CHANNELS 3 Zrotation Xrotation Yrotation
                                    JOINT RightFinger42
                                    {
                                        OFFSET  -1.858770   0.000000   0.000000
                                        CHANNELS 3 Zrotation Xrotation Yrotation
                                        End Site
                                        {
                                            OFFSET  -1.818440   0.000000   0.000000
                                        }
                                    }
                                }
                            }
                        }
                    }
                }
            }
        }
    }
    JOINT LeftHip
    {
        OFFSET   9.783010   0.000000   0.000000
        CHANNELS 3 Zrotation Xrotation Yrotation
        JOINT LeftKnee
        {
            OFFSET   0.000070 -41.789100   0.000028
            CHANNELS 3 Zrotation Xrotation Yrotation
            JOINT LeftAnkle
            {
                OFFSET   0.000087 -41.133200  -0.000100
                CHANNELS 3 Zrotation Xrotation Yrotation
                JOINT LeftToe
                {
                    OFFSET   0.000000  -6.358960  14.674500
                    CHANNELS 3 Zrotation Xrotation Yrotation
                    End Site
                    {
                        OFFSET   0.000000   0.000000   3.913200
                    }
                }
            }
        }
    }
    JOINT RightHip
    {
        OFFSET  -9.783020   0.000000   0.000000
        CHANNELS 3 Zrotation Xrotation Yrotation
        JOINT RightKnee
        {
            OFFSET   0.000044 -41.789100  -0.000870
            CHANNELS 3 Zrotation Xrotation Yrotation
            JOINT RightAnkle
            {
                OFFSET  -0.000090 -41.133200  -0.000245
                CHANNELS 3 Zrotation Xrotation Yrotation
                JOINT RightToe
                {
                    OFFSET   0.000000  -6.358960  14.674500
                    CHANNELS 3 Zrotation Xrotation Yrotation
                    End Site
                    {
                        OFFSET   0.000000   0.000000   3.913200
                    }
                }
            }
        }
    }
}
MOTION
Frames: 4
Frame Time:   0.016667
 -9.007840  88.312800  -0.045831   0.382376 -22.393200   3.187150   2.432430  13.548000  -3.320650   5.953170  26.908900  -7.578360   0.780350  -3.224460   0.042027   1.293740  -6.534490  18.019500  -8.738690  -6.114400   6.096000 -59.847400  25.286800 -28.280500   7.354850   7.458870 -116.774000  26.762000  -6.593140 -23.660300  46.314200  35.439300 -47.704300 -23.391300   0.000672   0.001180  -6.695630   0.005948  -0.002839  -2.056250  -0.048459   1.397640  -1.682630  -0.001608   0.001485  -1.177880  -0.001530  -0.000505  -5.180900  -0.304042   3.374900  -5.189480  -0.001554   0.001294  -3.456190   0.005670   0.001151   2.194120   0.131842   3.387610  -0.000000  -0.002080  -0.000503   0.000000  -0.001389   0.001677   9.985370   0.651308   3.690090   0.000000  -0.000511   0.008560  -0.000000  -0.000144  -0.004654   8.129450  -1.157320  16.503900  52.142600  19.831100  35.915600  -7.748620   1.164180 110.199000 -46.274400  -2.774460  28.966900 -39.101700  28.890100  60.812700  27.804100  -0.000613  -0.005461   8.902060   0.001293  -0.002374   6.699990   0.272295   2.246200   5.489810   0.002185  -0.002365   3.842890   0.000621  -0.000429   6.101130   0.248523   2.249150   6.110490   0.002232  -0.013112   4.069590   0.000829  -0.002474   6.163710   0.249086   2.249250   6.173150  -0.000703  -0.001027   4.111260   0.000785   0.001799   7.881220  -0.174266  -1.318920  11.836600   0.008112  -0.012210   7.883190   0.000816  -0.001616   8.291990  14.129700  -1.569680   1.734100  19.710700  12.304700  -9.572280  -9.197650  -3.281770   0.000000   0.000000   0.000000   5.327290  20.138500  -4.538530  -0.971514   9.235630 -13.564600  -0.905464  -7.970590  -2.030600   0.000000   0.000000   0.000000
 -8.981810  88.310400  -0.043587   0.280050 -22.367900   2.897620   2.399310  13.529000  -3.202010   5.848970  26.880700  -7.320050   0.815106  -3.190790   0.041003   1.346930  -6.466190  17.884000  -8.711590  -6.001590   6.021190 -60.120500  25.336700 -28.052800   7.752880   8.189220 -116.535000  26.568100  -5.590680 -23.990100  46.800000  35.873500 -48.582800 -23.230000   0.000525   0.000688  -6.614960   0.006110  -0.003305  -1.933010  -0.032799   0.884596  -1.585730  -0.001822   0.001619  -1.110050  -0.001610  -0.000432  -5.284280  -0.276208   2.938050  -5.291130  -0.001449   0.001369  -3.523890   0.006272   0.001344   1.982140   0.105662   2.950130  -0.000000  -0.002093  -0.000411   0.000000  -0.001394   0.001677   9.944590   0.665120   3.786600   0.000000  -0.000485   0.008589  -0.000000  -0.000135  -0.004594   8.253430  -1.079110  16.533500  51.835900  19.533200  36.626800  -7.292580  -0.110316 110.438000 -45.585900  -2.633240  27.787200 -39.523000  29.432400  61.661200  27.729600   0.000427  -0.005252   8.864800   0.001299  -0.002374   6.320800   0.290072   2.724040   5.180140   0.002231  -0.002435   3.626110   0.000598  -0.000507   5.783180   0.265319   2.727250   5.793090   0.002250  -0.011549   3.858200   0.000876  -0.002532   6.123430   0.285795   2.727130   6.133800  -0.000683  -0.000989   4.085070   0.000819   0.001738   7.698480  -0.115961  -0.884238  11.567700   0.008282  -0.016007   7.704160   0.000905  -0.001683   8.210850  14.138300  -1.602150   1.756620  19.760900  12.307600  -9.497550  -9.281000  -2.989030  -0.000000   0.000000   0.000000   5.301790  20.050100  -4.647400  -1.040870   9.348460 -13.380500  -0.848695  -8.011760  -1.826820   0.000000   0.000000   0.000000
 -8.950950  88.310100  -0.033605   0.192973 -22.304900   2.668120   2.365430  13.481600  -3.075360   5.742770  26.795400  -7.042090   0.855421  -3.123710   0.040008   1.416940  -6.330050  17.651900  -8.662440  -5.892670   5.881390 -60.256700  25.375900 -27.874900   7.988690   8.541620 -116.291000  26.194000  -5.032850 -24.583900  47.460500  36.415700 -49.249400 -22.847500   0.000386   0.000226  -6.423760   0.006269  -0.003780  -1.694980  -0.014790   0.440902  -1.386680  -0.002022   0.001730  -0.970704  -0.001689  -0.000360  -5.341620  -0.247174   2.621910  -5.347000  -0.001338   0.001421  -3.561110   0.006857   0.001532   1.769600   0.079448   2.633650  -0.000000  -0.002105  -0.000322   0.000000  -0.001399   0.001677   9.919010   0.682493   3.902080   0.000000  -0.000458   0.008618  -0.000000  -0.000126  -0.004533   8.356240  -0.968463  16.537200  51.714200  19.035200  36.893700  -7.078930  -0.719240 110.844000 -45.531800  -2.222210  27.127000 -39.519700  29.725600  62.278100  27.655100   0.001143  -0.005039   8.827550   0.001303  -0.002375   5.649420   0.307814   3.207950   4.630770   0.002277  -0.002507   3.241540   0.000574  -0.000584   5.184070   0.282082   3.210460   5.193760   0.002270  -0.008793   3.459040   0.000925  -0.002558   5.903960   0.322453   3.208470   5.914660  -0.000660  -0.000947   3.939150   0.000854   0.001675   7.261220  -0.038142  -0.211093  10.900400   0.008306  -0.017622   7.259700   0.000992  -0.001759   8.096230  14.139400  -1.633260   1.789880  19.791900  12.302300  -9.389400  -9.366300  -2.651950  -0.000000   0.000000   0.000000   5.268490  19.972700  -4.764010  -1.091600   9.401080 -13.192600  -0.793806  -8.030630  -1.662520  -0.000000   0.000000   0.000000
 -8.910810  88.313400  -0.014848   0.156147 -22.209600   2.583530   2.344310  13.408200  -2.992050   5.669810  26.655200  -6.855530   0.861821  -3.041490   0.039018   1.447090  -6.163240  17.449600  -8.621810  -5.796410   5.734720 -60.277800  25.380600 -27.776700   8.006750   8.426300 -116.023000  25.563100  -5.012580 -25.101600  47.687100  36.119500 -49.325600 -22.137000   0.000247   0.000133  -6.068510   0.006417  -0.004266  -1.490990  -0.012578   0.572147  -1.144630  -0.002196   0.001813  -0.801266  -0.001777  -0.000286  -5.117290  -0.237884   2.722880  -5.122880  -0.001229   0.001458  -3.411850   0.007420   0.001714   2.181970   0.109279   2.730530  -0.000000  -0.002112  -0.000247   0.000000  -0.001406   0.001679   9.915270   0.712512   4.071620   0.000000  -0.000437   0.008653  -0.000000  -0.000119  -0.004471   8.461320  -0.916144  16.531700  51.964300  18.314300  36.463400  -7.312840  -0.335718 111.318000 -46.199800  -1.380870  27.146800 -39.062700  28.997800  61.042700  28.009900  -0.000689  -0.004818   9.004950   0.001303  -0.002383   5.016840   0.289408   3.215020   4.110590   0.002325  -0.002578   2.877410   0.000547  -0.000665   4.535030   0.262481   3.216420   4.541510   0.002291  -0.005774   3.024650   0.000974  -0.002551   5.341990   0.305403   3.212490   5.349470  -0.000638  -0.000903   3.562750   0.000890   0.001613   6.423430   0.056383   0.579875   9.639120   0.003461  -0.010392   6.419660   0.001074  -0.001845   7.972320  14.085200  -1.650520   1.865660  19.814600  12.183600  -9.278040  -9.434320  -2.321640  -0.000000   0.000000  -0.000000   5.229070  19.907800  -4.857220  -1.110220   9.375630 -13.050800  -0.755969  -8.022550  -1.598360  -0.000000   0.000000   0.000000
